<svg xmlns="http://www.w3.org/2000/svg" viewBox="0 0 120 120" width="120" height="120">
  <defs>
    <radialGradient id="bCoin" cx="40%" cy="35%" r="70%">
      <stop offset="0%" stop-color="#ffd4a8"/>
      <stop offset="45%" stop-color="#d98b4a"/>
      <stop offset="100%" stop-color="#7a3d10"/>
    </radialGradient>
    <radialGradient id="bInner" cx="45%" cy="40%" r="60%">
      <stop offset="0%" stop-color="#ffe0bc"/>
      <stop offset="100%" stop-color="#c97a3f"/>
    </radialGradient>
    <radialGradient id="bShine" cx="50%" cy="50%" r="50%">
      <stop offset="0%" stop-color="#fff" stop-opacity="1"/>
      <stop offset="60%" stop-color="#fff" stop-opacity="0.4"/>
      <stop offset="100%" stop-color="#fff" stop-opacity="0"/>
    </radialGradient>
  </defs>
  <circle cx="60" cy="60" r="52" fill="url(#bCoin)" stroke="#5a2a08" stroke-width="2"/>
  <g stroke="#5a2a08" stroke-width="1" opacity="0.45">
    <line x1="60" y1="8" x2="60" y2="20"/>
    <line x1="60" y1="100" x2="60" y2="112"/>
    <line x1="8" y1="60" x2="20" y2="60"/>
    <line x1="100" y1="60" x2="112" y2="60"/>
    <line x1="23" y1="23" x2="31" y2="31"/>
    <line x1="89" y1="89" x2="97" y2="97"/>
    <line x1="23" y1="97" x2="31" y2="89"/>
    <line x1="89" y1="31" x2="97" y2="23"/>
  </g>
  <circle cx="60" cy="60" r="38" fill="url(#bInner)" stroke="#a05a20" stroke-width="1.5"/>
  <circle cx="55" cy="52" r="28" fill="url(#bShine)"/>
  <g fill="#fff" opacity="0.95">
    <path d="M52 34 L55 48 L52 62 L49 48 Z"/>
    <path d="M38 48 L52 45 L66 48 L52 51 Z"/>
    <path d="M44 38 L53 47 L60 57 L51 48 Z"/>
  </g>
</svg>
